PathFileType	4	(X/Y/Z)	 s05c0403.trc
DataRate	CameraRate	NumFrames	NumMarkers	Units	OrigDataRate	OrigDataStartFrame	OrigNumFrames
200	200	5	49	mm	200	251	2000
Frame#	Time	racr			lacr			c7			jug			rlel			rdr			llel			ldr			s2			lic			ric			lasi			rasi			rpsi			lpsi			rgt			lgt			rth1			rth2			rth3			rth4			rlfc			rsh1			rsh2			rsh3			rsh4			rlmal			rmmal			rcal			rtoe			rmt5			lth1			lth2			lth4			lth3			llfc			lmfc			lsh1			lsh2			lsh3			lsh4			llmal			lmmal			lcal			ltoe			lmt5			SBIKE			LBIKE			RBIKE			
		X1	Y1	Z1	X2	Y2	Z2	X3	Y3	Z3	X4	Y4	Z4	X5	Y5	Z5	X6	Y6	Z6	X7	Y7	Z7	X8	Y8	Z8	X9	Y9	Z9	X10	Y10	Z10	X11	Y11	Z11	X12	Y12	Z12	X13	Y13	Z13	X14	Y14	Z14	X15	Y15	Z15	X16	Y16	Z16	X17	Y17	Z17	X18	Y18	Z18	X19	Y19	Z19	X20	Y20	Z20	X21	Y21	Z21	X22	Y22	Z22	X23	Y23	Z23	X24	Y24	Z24	X25	Y25	Z25	X26	Y26	Z26	X27	Y27	Z27	X28	Y28	Z28	X29	Y29	Z29	X30	Y30	Z30	X31	Y31	Z31	X32	Y32	Z32	X33	Y33	Z33	X34	Y34	Z34	X35	Y35	Z35	X36	Y36	Z36	X37	Y37	Z37	X38	Y38	Z38	X39	Y39	Z39	X40	Y40	Z40	X41	Y41	Z41	X42	Y42	Z42	X43	Y43	Z43	X44	Y44	Z44	X45	Y45	Z45	X46	Y46	Z46	X47	Y47	Z47	X48	Y48	Z48	X49	Y49	Z49	
251	1.2550	475.779353	1315.278074	-100.076021	499.000131	1331.494079	-373.288595	454.961489	1400.750318	-243.247486	433.946086	1238.927231	-246.282621	473.797779	1079.896028	55.981956	671.976099	969.223790	-48.960166	467.021097	1107.261786	-573.576441	763.457849	1033.907511	-451.650520	-98.865313	1171.365216	-267.285682	54.758795	1175.629008	-410.540845	50.109977	1179.645561	-127.890309	90.809733	1116.795578	-374.980813	90.910619	1120.506824	-154.399889	-59.562154	1212.780316	-227.913540	-56.096175	1218.049107	-314.412528	5.514836	1067.646811	-94.653907	-34.033949	1072.645515	-439.137043	104.430906	1008.682423	-83.328468	191.715605	990.492476	-81.892071	256.332057	931.004442	-83.020450	207.501695	1021.879818	-93.210088	389.739575	851.934096	-106.870644	327.576134	758.650040	-85.632619	317.502728	671.014526	-98.080521	269.018649	600.720888	-102.477703	346.767979	663.299032	-122.086853	226.989033	474.356624	-113.282860	239.909930	506.641305	-190.539560	157.373025	435.577118	-159.873416	452.317147	434.692510	-145.099600	351.463082	404.038369	-82.796000	47.799815	948.282564	-462.334409	119.163922	900.108763	-462.168132	147.489708	921.797733	-450.555400	156.940153	817.804846	-462.704406	232.168041	690.941448	-430.680021	215.567555	684.171261	-321.209627	136.232112	605.520118	-453.885604	100.053201	526.531765	-441.166865	27.300748	475.658465	-439.294845	125.147770	509.282798	-417.699762	-44.033822	372.091448	-430.488925	-8.943883	395.504028	-353.860569	-116.141780	351.069092	-386.175968	159.392276	248.535790	-396.007191	48.247479	255.098596	-457.842874	-166.830015	901.908566	-267.863982	-43.709952	84.763449	-474.791001	-51.914873	80.131376	-77.273962	
252	1.2600	479.872635	1311.910956	-99.831501	503.081034	1328.524498	-372.017748	458.145414	1397.844673	-242.547621	436.903743	1235.741676	-245.715041	474.302133	1077.522750	57.821183	671.992505	969.186260	-48.310807	467.847452	1106.519082	-575.117195	763.606087	1035.577819	-448.838515	-97.683607	1172.299405	-267.094572	56.338797	1175.441858	-410.522651	51.812593	1178.921362	-127.745735	91.979601	1117.150988	-375.620500	91.931424	1119.699610	-154.373953	-57.629085	1213.137411	-227.694454	-54.219420	1218.580491	-314.233124	6.055851	1067.223826	-94.743149	-33.346554	1073.344025	-439.216893	104.526593	1007.228804	-83.571489	191.549660	987.768189	-82.423597	255.568687	927.645915	-83.561815	207.774504	1019.069805	-93.535747	387.955097	847.341793	-107.917573	326.301562	753.760542	-86.297678	316.910707	666.040766	-98.653881	269.001416	595.292033	-102.934832	346.258974	658.556577	-122.651778	227.790936	468.542566	-113.493853	241.876523	500.526394	-191.789204	158.610028	429.024514	-160.043862	453.494045	431.359361	-145.061268	352.967893	399.754349	-82.729454	48.705653	949.167056	-462.310834	120.408363	901.617402	-462.316889	148.622282	923.477017	-450.619168	158.824294	819.556168	-463.002699	234.740721	692.881518	-431.052400	218.063313	686.304073	-321.495218	138.063626	608.265259	-453.801252	101.054700	529.664565	-441.214714	27.777872	479.558168	-439.138941	125.999993	512.123074	-417.737149	-44.807124	376.919987	-430.465445	-9.417189	400.034155	-353.778235	-117.075999	356.427170	-386.073692	157.748425	251.782409	-396.010917	46.606084	259.164143	-457.839227	-166.798302	901.815979	-268.383250	-43.707913	84.769075	-474.802037	-51.911324	80.123080	-77.285163	
253	1.2650	484.021198	1308.531769	-99.606037	507.192162	1325.567044	-370.737352	461.357382	1394.918427	-241.774029	439.911747	1232.629847	-245.262432	474.872595	1075.327693	59.682008	672.003345	969.150167	-47.675315	468.797684	1105.733523	-576.616097	763.397846	1033.934646	-451.623328	-96.373343	1173.125854	-266.851846	57.985087	1175.281329	-410.464934	53.597515	1178.220860	-127.626616	92.921907	1116.713732	-375.562421	93.025619	1118.913329	-154.323472	-55.619704	1213.463979	-227.407095	-52.386955	1219.021723	-313.973001	6.815801	1066.858332	-94.808642	-32.530109	1074.001965	-439.328438	104.672673	1005.486698	-83.833570	191.419338	985.059125	-82.834782	254.720052	924.079100	-84.290313	208.036370	1016.042215	-93.954498	386.210162	842.675398	-109.011579	324.928877	748.711405	-86.983373	316.266203	660.755763	-99.266280	268.946967	589.741216	-103.438051	345.663417	653.557891	-123.280758	228.408070	462.884544	-113.700338	241.376867	494.876785	-191.997056	159.415279	423.220466	-159.228759	454.552093	428.278411	-144.999743	354.295835	395.408682	-82.735270	49.688652	950.176581	-462.391054	121.757681	903.117500	-462.953373	149.805599	925.161844	-450.732347	160.771362	821.355887	-463.265541	237.295872	694.903030	-431.463656	220.559442	688.370694	-321.919683	139.949362	611.168112	-453.810752	102.141863	532.903103	-441.290266	28.295327	483.608425	-439.144207	126.926266	515.112390	-417.749667	-45.389123	381.650780	-430.297832	-9.727534	404.547636	-353.698287	-117.753384	361.812797	-385.948794	156.221181	255.056379	-395.971534	45.132123	263.299140	-457.824983	-166.816491	901.808146	-268.541262	-43.694180	84.771627	-474.808720	-51.924214	80.136930	-77.281269	
254	1.2700	488.234227	1305.182331	-99.468285	511.328145	1322.589794	-369.410403	464.689401	1392.115307	-241.051237	442.954142	1229.512748	-244.710423	475.335073	1073.091351	61.529752	672.012294	969.080286	-47.027639	469.734156	1105.064102	-578.088773	763.485507	1033.870398	-451.679668	-94.905874	1173.893616	-266.765353	59.623082	1175.137953	-410.262362	55.373940	1177.491160	-127.490988	94.019577	1116.317276	-375.480515	94.096751	1118.011634	-154.408126	-53.472001	1213.867902	-227.134153	-50.380983	1219.446558	-313.663136	7.602548	1066.333737	-94.879070	-31.620514	1074.623433	-439.393957	104.798471	1003.645332	-84.010785	191.259503	982.112137	-83.179537	253.797163	920.443871	-84.986604	208.295677	1013.130928	-94.114902	384.333221	837.791543	-109.963360	323.592557	743.396131	-87.635415	315.635461	655.371269	-99.886625	268.985251	583.885115	-103.922594	345.011581	648.511681	-123.985733	228.871994	456.960695	-113.903740	240.882420	489.083095	-191.641154	160.087854	416.198154	-159.622995	455.344121	424.946212	-144.856873	355.487192	391.002263	-82.616911	50.857702	951.154054	-462.463990	123.233679	904.609695	-463.065095	151.117868	926.823109	-450.760265	162.812423	823.123593	-463.527326	239.937031	696.853281	-431.847320	223.246406	690.327998	-322.327690	141.909219	614.069287	-454.029139	103.285142	536.239365	-441.402740	28.940420	487.724686	-439.238816	127.811585	518.114338	-417.778164	-45.664219	386.577199	-430.231976	-9.878964	409.075543	-353.603653	-118.241683	367.218112	-385.842318	154.827428	258.247061	-395.957528	43.828961	267.469861	-457.720609	-166.856436	901.775508	-268.559176	-43.690597	84.750482	-474.790232	-51.907752	80.146540	-77.277886	
255	1.2750	492.524345	1301.843888	-99.276172	515.489838	1319.645698	-368.183892	468.069341	1389.212451	-240.252704	446.036202	1226.429126	-244.205078	475.984375	1070.924225	63.291090	672.016441	968.917001	-46.366217	470.740118	1104.542699	-579.470891	763.243754	1033.901584	-451.592925	-93.280072	1174.805127	-266.559251	61.459989	1174.977690	-410.193245	57.198170	1176.793251	-127.301429	95.292112	1115.840103	-375.486983	95.201387	1117.143070	-154.433685	-51.230760	1214.210420	-226.758268	-48.354965	1219.912419	-313.339364	8.214917	1065.881471	-95.193194	-30.607218	1075.298123	-439.449485	104.917040	1001.818603	-84.183059	191.077560	979.188090	-83.545890	252.848329	916.734336	-85.713625	208.556339	1010.075692	-94.218641	382.503530	832.761567	-110.765080	322.263838	737.914889	-88.161905	314.852915	650.086932	-100.523107	268.834783	578.152470	-104.499055	345.360681	643.320378	-124.395037	229.194442	451.042316	-114.103483	240.943764	483.083275	-191.927556	160.911724	409.401684	-159.808316	456.078131	421.739845	-144.754798	356.523634	386.557618	-82.559952	52.142023	952.214604	-462.616388	124.823324	906.124778	-462.759325	152.517063	928.499881	-450.839775	164.977295	824.897298	-463.779282	242.561074	698.796281	-432.276459	225.862160	692.344287	-322.784711	144.034850	616.946349	-454.379134	104.578420	539.605401	-441.603281	29.710256	491.805697	-439.290693	128.976661	521.182119	-417.982362	-45.923843	391.472126	-430.148658	-9.854075	413.667915	-353.551289	-118.675083	372.634910	-385.790962	153.522832	261.475850	-395.922893	42.627710	271.618118	-457.686096	-166.827004	901.730031	-268.632046	-43.696545	84.738732	-474.792469	-51.909325	80.115167	-77.286787	
